<svg width="20" height="25" viewBox="0 0 20 25" fill="none" xmlns="http://www.w3.org/2000/svg">
<path d="M18.75 6.25H15V5C15 3.67392 14.4732 2.40215 13.5355 1.46447C12.5979 0.526784 11.3261 0 10 0C8.67392 0 7.40215 0.526784 6.46447 1.46447C5.52678 2.40215 5 3.67392 5 5V6.25H1.25C0.918479 6.25 0.600537 6.3817 0.366117 6.61612C0.131696 6.85054 0 7.16848 0 7.5V21.25C0 22.2446 0.395088 23.1984 1.09835 23.9017C1.80161 24.6049 2.75544 25 3.75 25H16.25C17.2446 25 18.1984 24.6049 18.9017 23.9017C19.6049 23.1984 20 22.2446 20 21.25V7.5C20 7.16848 19.8683 6.85054 19.6339 6.61612C19.3995 6.3817 19.0815 6.25 18.75 6.25ZM7.5 5C7.5 4.33696 7.76339 3.70107 8.23223 3.23223C8.70107 2.76339 9.33696 2.5 10 2.5C10.663 2.5 11.2989 2.76339 11.7678 3.23223C12.2366 3.70107 12.5 4.33696 12.5 5V6.25H7.5V5ZM17.5 21.25C17.5 21.5815 17.3683 21.8995 17.1339 22.1339C16.8995 22.3683 16.5815 22.5 16.25 22.5H3.75C3.41848 22.5 3.10054 22.3683 2.86612 22.1339C2.6317 21.8995 2.5 21.5815 2.5 21.25V8.75H5V10C5 10.3315 5.1317 10.6495 5.36612 10.8839C5.60054 11.1183 5.91848 11.25 6.25 11.25C6.58152 11.25 6.89946 11.1183 7.13388 10.8839C7.3683 10.6495 7.5 10.3315 7.5 10V8.75H12.5V10C12.5 10.3315 12.6317 10.6495 12.8661 10.8839C13.1005 11.1183 13.4185 11.25 13.75 11.25C14.0815 11.25 14.3995 11.1183 14.6339 10.8839C14.8683 10.6495 15 10.3315 15 10V8.75H17.5V21.25Z" fill="white"/>
</svg>
