<svg width="164" height="32" viewBox="0 0 164 32" fill="none" xmlns="http://www.w3.org/2000/svg">
<path d="M4.97266 5.95801V15.4873H9.7373C10.3903 15.4873 11.0046 15.3656 11.5801 15.1221C12.1556 14.8675 12.6592 14.5244 13.0908 14.0928C13.5225 13.6611 13.86 13.1576 14.1035 12.582C14.3581 11.9954 14.4854 11.3757 14.4854 10.7227C14.4854 10.0697 14.3581 9.4554 14.1035 8.87988C13.86 8.29329 13.5225 7.78418 13.0908 7.35254C12.6592 6.9209 12.1556 6.58333 11.5801 6.33984C11.0046 6.08529 10.3903 5.95801 9.7373 5.95801H4.97266ZM4.97266 25H0.208008V1.19336H9.7373C10.6117 1.19336 11.4528 1.30957 12.2607 1.54199C13.0687 1.76335 13.8213 2.08431 14.5186 2.50488C15.2269 2.91439 15.8688 3.41243 16.4443 3.99902C17.0309 4.57454 17.529 5.21647 17.9385 5.9248C18.359 6.63314 18.68 7.39128 18.9014 8.19922C19.1338 9.00716 19.25 9.84831 19.25 10.7227C19.25 11.5417 19.1449 12.3385 18.9346 13.1133C18.7354 13.888 18.4421 14.624 18.0547 15.3213C17.6784 16.0186 17.2135 16.6605 16.6602 17.2471C16.1068 17.8337 15.487 18.3428 14.8008 18.7744L17.4404 25H12.377L10.3018 20.2021L4.97266 20.2354V25ZM28.4393 20.6504C28.6164 20.7057 28.7935 20.7445 28.9705 20.7666C29.1476 20.7777 29.3247 20.7832 29.5018 20.7832C29.9445 20.7832 30.3706 20.7223 30.7801 20.6006C31.1896 20.4788 31.5715 20.3073 31.9256 20.0859C32.2909 19.8535 32.6118 19.5768 32.8885 19.2559C33.1763 18.9238 33.4087 18.5586 33.5858 18.1602L36.9061 21.4971C36.4855 22.0947 35.9985 22.6315 35.4452 23.1074C34.9028 23.5833 34.3107 23.9873 33.6688 24.3193C33.0379 24.6514 32.3683 24.9004 31.66 25.0664C30.9627 25.2435 30.2433 25.332 29.5018 25.332C28.2511 25.332 27.0724 25.0996 25.9657 24.6348C24.87 24.1699 23.9071 23.5225 23.077 22.6924C22.258 21.8623 21.6105 20.8773 21.1346 19.7373C20.6587 18.5863 20.4207 17.3245 20.4207 15.9521C20.4207 14.5465 20.6587 13.2627 21.1346 12.1006C21.6105 10.9385 22.258 9.94792 23.077 9.12891C23.9071 8.3099 24.87 7.6735 25.9657 7.21973C27.0724 6.76595 28.2511 6.53906 29.5018 6.53906C30.2433 6.53906 30.9683 6.6276 31.6766 6.80469C32.3849 6.98177 33.0545 7.23633 33.6854 7.56836C34.3273 7.90039 34.925 8.3099 35.4784 8.79688C36.0317 9.27279 36.5187 9.80957 36.9393 10.4072L28.4393 20.6504ZM30.7635 11.3037C30.5532 11.2262 30.3429 11.1764 30.1327 11.1543C29.9334 11.1322 29.7232 11.1211 29.5018 11.1211C28.882 11.1211 28.2954 11.2373 27.742 11.4697C27.1997 11.6911 26.7238 12.012 26.3143 12.4326C25.9159 12.8532 25.6004 13.3623 25.368 13.96C25.1356 14.5465 25.0194 15.2106 25.0194 15.9521C25.0194 16.1182 25.0249 16.3063 25.036 16.5166C25.0581 16.7269 25.0858 16.9427 25.119 17.1641C25.1633 17.3743 25.2131 17.5791 25.2684 17.7783C25.3237 17.9775 25.3957 18.1546 25.4842 18.3096L30.7635 11.3037ZM55.9733 25H54.8776L53.1179 22.5596C52.6862 22.9469 52.2269 23.3122 51.7399 23.6553C51.264 23.9873 50.7604 24.2806 50.2292 24.5352C49.6979 24.7786 49.1501 24.9723 48.5856 25.1162C48.0322 25.2601 47.4678 25.332 46.8923 25.332C45.6416 25.332 44.4629 25.1217 43.3561 24.7012C42.2604 24.2806 41.2975 23.6719 40.4675 22.875C39.6485 22.0671 39.001 21.082 38.5251 19.9199C38.0492 18.7578 37.8112 17.4352 37.8112 15.9521C37.8112 14.5687 38.0492 13.3014 38.5251 12.1504C39.001 10.9883 39.6485 9.99219 40.4675 9.16211C41.2975 8.33203 42.2604 7.6901 43.3561 7.23633C44.4629 6.77148 45.6416 6.53906 46.8923 6.53906C47.4678 6.53906 48.0378 6.611 48.6022 6.75488C49.1667 6.89876 49.7145 7.09798 50.2458 7.35254C50.777 7.6071 51.2806 7.90592 51.7565 8.24902C52.2435 8.59212 52.6973 8.96289 53.1179 9.36133L54.8776 7.25293H55.9733V25ZM51.4079 15.9521C51.4079 15.3324 51.2861 14.7347 51.0427 14.1592C50.8102 13.5726 50.4893 13.0579 50.0798 12.6152C49.6703 12.1615 49.1888 11.8018 48.6354 11.5361C48.0931 11.2594 47.5121 11.1211 46.8923 11.1211C46.2725 11.1211 45.6859 11.2262 45.1325 11.4365C44.5902 11.6468 44.1143 11.9567 43.7048 12.3662C43.3063 12.7757 42.9909 13.2848 42.7585 13.8936C42.5261 14.4912 42.4098 15.1774 42.4098 15.9521C42.4098 16.7269 42.5261 17.4186 42.7585 18.0273C42.9909 18.625 43.3063 19.1286 43.7048 19.5381C44.1143 19.9476 44.5902 20.2575 45.1325 20.4678C45.6859 20.6781 46.2725 20.7832 46.8923 20.7832C47.5121 20.7832 48.0931 20.6504 48.6354 20.3848C49.1888 20.1081 49.6703 19.7484 50.0798 19.3057C50.4893 18.8519 50.8102 18.3372 51.0427 17.7617C51.2861 17.1751 51.4079 16.5719 51.4079 15.9521ZM76.2857 25H75.19L73.4302 22.5596C72.9986 22.9469 72.5392 23.3122 72.0523 23.6553C71.5764 23.9873 71.0728 24.2806 70.5415 24.5352C70.0103 24.7786 69.4624 24.9723 68.898 25.1162C68.3446 25.2601 67.7801 25.332 67.2046 25.332C65.954 25.332 64.7752 25.0996 63.6685 24.6348C62.5728 24.1589 61.6099 23.5059 60.7798 22.6758C59.9608 21.8346 59.3133 20.8441 58.8374 19.7041C58.3615 18.5531 58.1236 17.3024 58.1236 15.9521C58.1236 14.613 58.3615 13.3678 58.8374 12.2168C59.3133 11.0658 59.9608 10.0697 60.7798 9.22852C61.6099 8.38737 62.5728 7.72884 63.6685 7.25293C64.7752 6.77702 65.954 6.53906 67.2046 6.53906C67.603 6.53906 68.0126 6.57227 68.4331 6.63867C68.8648 6.70508 69.2798 6.81576 69.6782 6.9707C70.0877 7.11458 70.4696 7.30827 70.8237 7.55176C71.1779 7.79525 71.4767 8.09408 71.7202 8.44824V0.147461H76.2857V25ZM71.7202 15.9521C71.7202 15.3324 71.5985 14.7347 71.355 14.1592C71.1226 13.5726 70.8016 13.0579 70.3921 12.6152C69.9826 12.1615 69.5012 11.8018 68.9478 11.5361C68.4055 11.2594 67.8244 11.1211 67.2046 11.1211C66.5848 11.1211 65.9982 11.2318 65.4448 11.4531C64.9025 11.6745 64.4266 11.9954 64.0171 12.416C63.6187 12.8255 63.3032 13.3291 63.0708 13.9268C62.8384 14.5244 62.7222 15.1995 62.7222 15.9521C62.7222 16.6051 62.8384 17.2249 63.0708 17.8115C63.3032 18.3981 63.6187 18.9128 64.0171 19.3555C64.4266 19.7982 64.9025 20.1468 65.4448 20.4014C65.9982 20.6559 66.5848 20.7832 67.2046 20.7832C67.8244 20.7832 68.4055 20.6504 68.9478 20.3848C69.5012 20.1081 69.9826 19.7484 70.3921 19.3057C70.8016 18.8519 71.1226 18.3372 71.355 17.7617C71.5985 17.1751 71.7202 16.5719 71.7202 15.9521ZM83.6986 31.7734V27.208L86.222 27.2412C86.6647 27.2412 87.0908 27.1693 87.5004 27.0254C87.9099 26.8815 88.2862 26.6823 88.6293 26.4277C88.9834 26.1732 89.2933 25.8688 89.5589 25.5146C89.8246 25.1715 90.0404 24.7952 90.2064 24.3857C89.7084 24.596 89.1992 24.8063 88.6791 25.0166C88.1699 25.2269 87.6553 25.332 87.1351 25.332C86.0394 25.332 85.0101 25.1383 84.0472 24.751C83.0843 24.3636 82.2377 23.8158 81.5072 23.1074C80.7878 22.388 80.2178 21.5192 79.7972 20.501C79.3877 19.4717 79.183 18.3206 79.183 17.0479V7.21973H83.6986V17.0479C83.6986 17.6787 83.7871 18.2321 83.9642 18.708C84.1524 19.1729 84.4014 19.5658 84.7113 19.8867C85.0212 20.1966 85.3809 20.429 85.7904 20.584C86.211 20.7389 86.6592 20.8164 87.1351 20.8164C87.6 20.8164 88.0371 20.7113 88.4466 20.501C88.8672 20.2796 89.2324 19.9919 89.5423 19.6377C89.8522 19.2835 90.0957 18.8851 90.2728 18.4424C90.4499 17.9886 90.5384 17.5238 90.5384 17.0479V7.21973H95.1039V22.7588C95.0928 24.0094 94.8493 25.1826 94.3734 26.2783C93.8975 27.374 93.2445 28.3314 92.4144 29.1504C91.5954 29.9694 90.638 30.6169 89.5423 31.0928C88.4466 31.5687 87.2735 31.8066 86.0228 31.8066L83.6986 31.7734ZM116.91 1.19336L109.091 25H104.326L96.5402 1.19336H101.952L106.7 17.0811L111.465 1.19336H116.91ZM123.925 20.6504C124.102 20.7057 124.279 20.7445 124.456 20.7666C124.633 20.7777 124.81 20.7832 124.987 20.7832C125.43 20.7832 125.856 20.7223 126.266 20.6006C126.675 20.4788 127.057 20.3073 127.411 20.0859C127.776 19.8535 128.097 19.5768 128.374 19.2559C128.662 18.9238 128.894 18.5586 129.071 18.1602L132.392 21.4971C131.971 22.0947 131.484 22.6315 130.931 23.1074C130.388 23.5833 129.796 23.9873 129.154 24.3193C128.523 24.6514 127.854 24.9004 127.146 25.0664C126.448 25.2435 125.729 25.332 124.987 25.332C123.737 25.332 122.558 25.0996 121.451 24.6348C120.356 24.1699 119.393 23.5225 118.563 22.6924C117.744 21.8623 117.096 20.8773 116.62 19.7373C116.144 18.5863 115.906 17.3245 115.906 15.9521C115.906 14.5465 116.144 13.2627 116.62 12.1006C117.096 10.9385 117.744 9.94792 118.563 9.12891C119.393 8.3099 120.356 7.6735 121.451 7.21973C122.558 6.76595 123.737 6.53906 124.987 6.53906C125.729 6.53906 126.454 6.6276 127.162 6.80469C127.87 6.98177 128.54 7.23633 129.171 7.56836C129.813 7.90039 130.411 8.3099 130.964 8.79688C131.517 9.27279 132.004 9.80957 132.425 10.4072L123.925 20.6504ZM126.249 11.3037C126.039 11.2262 125.828 11.1764 125.618 11.1543C125.419 11.1322 125.209 11.1211 124.987 11.1211C124.368 11.1211 123.781 11.2373 123.228 11.4697C122.685 11.6911 122.209 12.012 121.8 12.4326C121.401 12.8532 121.086 13.3623 120.854 13.96C120.621 14.5465 120.505 15.2106 120.505 15.9521C120.505 16.1182 120.51 16.3063 120.522 16.5166C120.544 16.7269 120.571 16.9427 120.605 17.1641C120.649 17.3743 120.699 17.5791 120.754 17.7783C120.809 17.9775 120.881 18.1546 120.97 18.3096L126.249 11.3037ZM138.908 25H134.376V7.21973H135.472L136.966 9.32812C137.696 8.66406 138.526 8.15495 139.456 7.80078C140.386 7.43555 141.349 7.25293 142.345 7.25293H146.346V11.7686H142.345C141.869 11.7686 141.42 11.8571 141 12.0342C140.579 12.2113 140.214 12.4548 139.904 12.7646C139.594 13.0745 139.351 13.4398 139.174 13.8604C138.997 14.2809 138.908 14.7292 138.908 15.2051V25ZM152.264 31.7734V27.208L154.788 27.2412C155.231 27.2412 155.657 27.1693 156.066 27.0254C156.476 26.8815 156.852 26.6823 157.195 26.4277C157.549 26.1732 157.859 25.8688 158.125 25.5146C158.39 25.1715 158.606 24.7952 158.772 24.3857C158.274 24.596 157.765 24.8063 157.245 25.0166C156.736 25.2269 156.221 25.332 155.701 25.332C154.605 25.332 153.576 25.1383 152.613 24.751C151.65 24.3636 150.803 23.8158 150.073 23.1074C149.354 22.388 148.784 21.5192 148.363 20.501C147.954 19.4717 147.749 18.3206 147.749 17.0479V7.21973H152.264V17.0479C152.264 17.6787 152.353 18.2321 152.53 18.708C152.718 19.1729 152.967 19.5658 153.277 19.8867C153.587 20.1966 153.947 20.429 154.356 20.584C154.777 20.7389 155.225 20.8164 155.701 20.8164C156.166 20.8164 156.603 20.7113 157.012 20.501C157.433 20.2796 157.798 19.9919 158.108 19.6377C158.418 19.2835 158.662 18.8851 158.839 18.4424C159.016 17.9886 159.104 17.5238 159.104 17.0479V7.21973H163.67V22.7588C163.659 24.0094 163.415 25.1826 162.939 26.2783C162.463 27.374 161.81 28.3314 160.98 29.1504C160.161 29.9694 159.204 30.6169 158.108 31.0928C157.012 31.5687 155.839 31.8066 154.589 31.8066L152.264 31.7734Z" fill="white"/>
</svg>
