<svg width="16" height="18" viewBox="0 0 16 18" fill="none" xmlns="http://www.w3.org/2000/svg">
<path d="M14.2222 16.2H1.77778V6.3H14.2222M11.5556 0V1.8H4.44444V0H2.66667V1.8H1.77778C0.8 1.8 0 2.61 0 3.6V16.2C0 16.6774 0.187301 17.1352 0.520699 17.4728C0.854097 17.8104 1.30628 18 1.77778 18H14.2222C15.2089 18 16 17.199 16 16.2V3.6C16 3.12261 15.8127 2.66477 15.4793 2.32721C15.1459 1.98964 14.6937 1.8 14.2222 1.8H13.3333V0M7.00444 9.9H3.79556L6.39111 11.799L5.40444 14.904L8 12.987L10.5956 14.904L9.6 11.808L12.1956 9.9H8.99556L8 6.804L7.00444 9.9Z" fill="#D82356"/>
</svg>
