<svg width="23" height="20" viewBox="0 0 23 20" fill="none" xmlns="http://www.w3.org/2000/svg">
<path d="M4.79025 0.179224C2.48661 0.862354 0.746884 2.61897 0.170973 4.85135C-0.0569911 5.75406 -0.0569911 7.57167 0.170973 8.47438C0.506921 9.79184 1.09483 10.7068 2.42662 12.0364C4.56229 14.1834 10.2374 19.5509 10.6093 19.7826C11.0173 20.0388 11.7732 20.0754 12.2531 19.8558C12.4331 19.7704 14.5807 17.782 17.0403 15.4399C21.8036 10.8897 22.2115 10.414 22.6795 8.92573C23.0274 7.81565 23.0994 6.15662 22.8594 5.09532C21.7196 0.167025 15.8045 -1.67499 12.1451 1.76506L11.4372 2.43599L10.9933 1.94804C10.3934 1.30151 9.43353 0.679373 8.56967 0.362204C7.66981 0.0328388 5.60613 -0.0647526 4.79025 0.179224ZM8.31771 2.67997C8.92961 2.98494 9.33755 3.3265 10.2134 4.27801C10.8253 4.94894 11.3772 5.49788 11.4372 5.49788C11.5092 5.49788 12.1331 4.92454 12.829 4.21701C14.4847 2.57018 15.0607 2.26521 16.6084 2.26521C17.5443 2.26521 17.7722 2.31401 18.3721 2.60678C19.248 3.04593 20.1719 4.05843 20.5198 4.98553C20.7238 5.51008 20.7838 5.93704 20.7838 6.71776C20.7718 7.96203 20.4838 8.85254 19.8119 9.64546C19.284 10.2798 11.6172 17.5747 11.4852 17.5747C11.3772 17.5747 4.25034 10.8531 3.48246 10.0358C3.1945 9.71865 2.78657 9.10871 2.5826 8.66956C2.25865 7.97423 2.21066 7.74245 2.21066 6.77875C2.21066 5.49788 2.36663 4.87575 2.90655 4.08283C3.42247 3.3387 3.97438 2.87515 4.86224 2.49699C5.46215 2.24081 5.71411 2.20422 6.55398 2.24081C7.35785 2.27741 7.66981 2.3506 8.31771 2.67997Z" fill="white"/>
</svg>
