<svg width="15" height="15" viewBox="0 0 15 15" fill="none" xmlns="http://www.w3.org/2000/svg">
<path d="M0 7.51332C0 6.15453 0.339698 4.89565 1.01243 3.74334C1.68517 2.59103 2.59769 1.67851 3.75 1.00577C4.90231 0.333037 6.15453 0 7.50666 0C8.51909 0 9.49156 0.199822 10.4174 0.592806C11.3432 0.98579 12.1359 1.52531 12.8086 2.19139C13.4813 2.85746 14.0142 3.65675 14.4072 4.58925C14.8002 5.52176 15 6.48757 15 7.51332C15 8.52576 14.8002 9.49822 14.4072 10.4241C14.0142 11.3499 13.4747 12.1492 12.8086 12.8153C12.1425 13.4814 11.3432 14.0142 10.4174 14.4072C9.49156 14.8002 8.52575 15 7.50666 15C6.48757 15 5.50844 14.8002 4.58259 14.4072C3.65675 14.0142 2.85746 13.4747 2.18472 12.8086C1.51199 12.1425 0.98579 11.3433 0.586146 10.4241C0.186501 9.50488 0 8.53242 0 7.51332ZM1.65186 7.51332C1.65186 9.09192 2.22469 10.464 3.377 11.6297C4.52931 12.782 5.90142 13.3548 7.50666 13.3548C8.55906 13.3548 9.53819 13.095 10.4307 12.5688C11.3233 12.0426 12.0426 11.3366 12.5688 10.4374C13.095 9.53819 13.3615 8.56572 13.3615 7.51332C13.3615 6.46092 13.095 5.48179 12.5688 4.58259C12.0426 3.68339 11.3299 2.97069 10.4307 2.44449C9.53153 1.9183 8.55906 1.65853 7.50666 1.65853C6.45426 1.65853 5.47513 1.9183 4.58259 2.44449C3.69005 2.97069 2.97069 3.68339 2.43783 4.58259C1.90497 5.48179 1.65186 6.46092 1.65186 7.51332ZM6.92718 7.51332V3.07726C6.92718 2.92407 6.98046 2.79085 7.08703 2.68428C7.19361 2.57771 7.32682 2.52442 7.48002 2.52442C7.63321 2.52442 7.76643 2.57771 7.873 2.68428C7.97957 2.79085 8.03286 2.92407 8.03286 3.07726V6.54751L9.88455 5.50178C10.0178 5.42185 10.1576 5.40187 10.3042 5.44183C10.4507 5.48179 10.5639 5.57504 10.6372 5.71492C10.7171 5.84814 10.7305 5.98801 10.6905 6.13455C10.6505 6.28108 10.5639 6.40098 10.4307 6.47425L7.84636 7.91963C7.74545 8.01455 7.61189 8.06702 7.47336 8.06616C7.40074 8.06736 7.32862 8.05383 7.26138 8.02639C7.19413 7.99895 7.13314 7.95816 7.0821 7.90649C7.03105 7.85482 6.991 7.79334 6.96438 7.72577C6.93775 7.65819 6.9251 7.58592 6.92718 7.51332Z" fill="#4F4F4F"/>
</svg>
