<svg width="13" height="25" viewBox="0 0 13 25" fill="none" xmlns="http://www.w3.org/2000/svg">
<path d="M12.4235 0.654269C12.2408 0.446869 12.0238 0.282325 11.785 0.170057C11.5462 0.0577884 11.2901 0 11.0315 0C10.773 0 10.5169 0.0577884 10.2781 0.170057C10.0392 0.282325 9.82228 0.446869 9.63963 0.654269L0.577386 10.9232C0.394357 11.1302 0.249149 11.376 0.150073 11.6467C0.0509977 11.9173 0 12.2075 0 12.5005C0 12.7935 0.0509977 13.0836 0.150073 13.3543C0.249149 13.6249 0.394357 13.8708 0.577386 14.0777L9.63963 24.3467C9.82241 24.5538 10.0394 24.7181 10.2782 24.8302C10.5171 24.9423 10.773 25 11.0315 25C11.29 25 11.546 24.9423 11.7848 24.8302C12.0237 24.7181 12.2407 24.5538 12.4235 24.3467C12.6062 24.1395 12.7512 23.8937 12.8502 23.623C12.9491 23.3524 13 23.0623 13 22.7694C13 22.4765 12.9491 22.1864 12.8502 21.9158C12.7512 21.6452 12.6062 21.3993 12.4235 21.1922L4.76299 12.4893L12.4235 3.80878C13.1737 2.93626 13.1737 1.50442 12.4235 0.654269Z" fill="black"/>
</svg>
