<svg width="20" height="20" viewBox="0 0 20 20" fill="none" xmlns="http://www.w3.org/2000/svg">
<path d="M6.45759 0.12388C3.96479 0.687298 2.01435 2.13758 0.940047 4.22431C0.303809 5.45548 0.0743456 6.31104 0.0117648 7.68828C-0.102967 10.2028 0.616713 12.0809 2.37941 13.8441C3.66231 15.1275 4.7992 15.7431 6.55146 16.0978C7.57362 16.3065 9.14857 16.2543 10.1499 15.983C10.8904 15.7848 12.2046 15.1901 12.674 14.8249C12.8513 14.6893 13.039 14.5745 13.0912 14.5745C13.1329 14.5745 14.3949 15.7952 15.8864 17.2872C18.4835 19.8748 18.6296 20 19.005 20C19.2971 20 19.4744 19.927 19.7039 19.6974C20.0272 19.374 20.0794 19.0923 19.8916 18.7167C19.829 18.5915 18.5878 17.2872 17.1276 15.8265L14.4784 13.166L14.8539 12.6025C16.2515 10.5367 16.5748 7.85522 15.7404 5.41374C15.3024 4.16171 14.8643 3.48352 13.7483 2.36712C12.6427 1.25072 11.6935 0.676863 10.3063 0.280384C9.28416 -0.0117588 7.3963 -0.0952263 6.45759 0.12388ZM10.0873 2.21061C12.5801 3.00357 14.2906 5.40331 14.2906 8.10563C14.2906 11.5487 11.6309 14.2615 8.22028 14.3032C6.37415 14.3241 4.99737 13.7711 3.74575 12.4982C2.43156 11.1731 1.92048 9.95239 1.92048 8.10563C1.92048 6.25887 2.43156 5.03813 3.74575 3.71306C4.61146 2.83663 5.61275 2.27321 6.65576 2.06454C6.96867 2.00194 7.32329 1.9289 7.43802 1.90804C7.88652 1.8037 9.30502 1.97064 10.0873 2.21061Z" fill="white"/>
</svg>
