<svg width="15" height="20" viewBox="0 0 15 20" fill="none" xmlns="http://www.w3.org/2000/svg">
<path d="M14.2695 3.64766L11.3543 0.732035C10.8828 0.263402 10.2461 3.90625e-06 9.58594 3.90625e-06L2.5 0C1.11914 0 0 1.11914 0 2.5L0.000253906 17.5C0.000253906 18.8809 1.11939 20 2.50025 20H12.5C13.875 20 15 18.875 15 17.5V5.41407C15 4.75391 14.7383 4.11719 14.2695 3.64766ZM12.5 18.125H2.50078C2.15562 18.125 1.91094 17.8452 1.87578 17.5352L1.875 2.50508C1.87498 2.15989 2.1548 1.88008 2.5 1.88008H8.75V5C8.75 5.69024 9.30977 6.25 10 6.25H13.0898V17.5C13.125 17.8438 12.8438 18.125 12.5 18.125Z" fill="white"/>
</svg>
