<svg width="19" height="20" viewBox="0 0 19 20" fill="none" xmlns="http://www.w3.org/2000/svg">
<path d="M9.49966 2.7146e-07C10.7416 -0.00037856 11.9509 0.395756 12.9501 1.13026C13.9494 1.86477 14.6859 2.89896 15.0516 4.08105C15.4173 5.26314 15.393 6.53086 14.9821 7.69815C14.5713 8.86544 13.7956 9.87082 12.7689 10.5667C14.551 11.2177 16.0966 12.3851 17.2069 13.9185C18.3172 15.4519 18.9414 17.2812 18.999 19.1709C19.0044 19.2758 18.9886 19.3807 18.9528 19.4795C18.9169 19.5783 18.8616 19.6689 18.7901 19.7461C18.7186 19.8233 18.6323 19.8855 18.5364 19.929C18.4404 19.9726 18.3367 19.9966 18.2313 19.9997C18.1259 20.0027 18.0209 19.9848 17.9225 19.947C17.8242 19.9091 17.7344 19.8521 17.6585 19.7792C17.5826 19.7063 17.522 19.619 17.4804 19.5225C17.4388 19.426 17.4169 19.3222 17.4161 19.2172C17.3532 17.1679 16.4917 15.2234 15.014 13.796C13.5363 12.3685 11.5587 11.5702 9.50019 11.5702C7.44167 11.5702 5.46404 12.3685 3.98638 13.796C2.50872 15.2234 1.64716 17.1679 1.58428 19.2172C1.57798 19.4264 1.4885 19.6245 1.33552 19.768C1.18254 19.9115 0.9786 19.9886 0.768559 19.9823C0.558518 19.9761 0.359583 19.8869 0.215517 19.7346C0.0714509 19.5822 -0.00594452 19.3791 0.000356711 19.1699C0.0581679 17.2803 0.682388 15.4513 1.79268 13.9181C2.90297 12.3849 4.44853 11.2177 6.23045 10.5667C5.20374 9.87082 4.42803 8.86544 4.01718 7.69815C3.60634 6.53086 3.58199 5.26314 3.94771 4.08105C4.31343 2.89896 5.04997 1.86477 6.04921 1.13026C7.04845 0.395756 8.25776 -0.00037856 9.49966 2.7146e-07ZM5.27587 5.78451C5.27587 6.90026 5.72088 7.9703 6.51299 8.75925C7.30511 9.5482 8.37944 9.99143 9.49966 9.99143C10.6199 9.99143 11.6942 9.5482 12.4863 8.75925C13.2784 7.9703 13.7235 6.90026 13.7235 5.78451C13.7235 4.66877 13.2784 3.59872 12.4863 2.80977C11.6942 2.02082 10.6199 1.57759 9.49966 1.57759C8.37944 1.57759 7.30511 2.02082 6.51299 2.80977C5.72088 3.59872 5.27587 4.66877 5.27587 5.78451Z" fill="white"/>
</svg>
