<svg width="26" height="29" viewBox="0 0 26 29" fill="none" xmlns="http://www.w3.org/2000/svg">
<path d="M13 29C11.1944 29 9.503 28.6648 7.92567 27.9945C6.34833 27.3241 4.97611 26.4197 3.809 25.2811C2.64189 24.1407 1.71552 22.8009 1.02989 21.2619C0.344259 19.7228 0.000962963 18.0714 0 16.3076C0 15.908 0.138667 15.5728 0.416 15.3021C0.693333 15.0313 1.03615 14.8964 1.44444 14.8973C1.8537 14.8973 2.197 15.0327 2.47433 15.3035C2.75167 15.5742 2.88985 15.9089 2.88889 16.3076C2.88889 19.0576 3.87015 21.3907 5.83267 23.3067C7.79518 25.2228 10.1843 26.1804 13 26.1795C15.8167 26.1795 18.2063 25.2214 20.1688 23.3053C22.1313 21.3892 23.1121 19.0567 23.1111 16.3076C23.1111 13.5576 22.1299 11.2245 20.1673 9.30842C18.2048 7.39234 15.8157 6.43476 13 6.4357H12.7833L14.0111 7.63443C14.3 7.91649 14.4387 8.24555 14.4271 8.62162C14.4156 8.99769 14.2769 9.32675 14.0111 9.60881C13.7222 9.89086 13.3794 10.038 12.9827 10.0502C12.5859 10.0624 12.2426 9.92706 11.9528 9.64406L8.23333 6.01262C7.94444 5.73057 7.8 5.40151 7.8 5.02544C7.8 4.64937 7.94444 4.3203 8.23333 4.03825L11.9528 0.406808C12.2417 0.124754 12.585 -0.0106313 12.9827 0.000650893C13.3804 0.011933 13.7232 0.159071 14.0111 0.442065C14.2759 0.724119 14.4146 1.05318 14.4271 1.42925C14.4396 1.80532 14.301 2.13439 14.0111 2.41644L12.7833 3.61517H13C14.8056 3.61517 16.497 3.95034 18.0743 4.62069C19.6517 5.29104 21.0239 6.19596 22.191 7.33546C23.3581 8.47495 24.285 9.81471 24.9716 11.3547C25.6581 12.8947 26.001 14.5457 26 16.3076C26 18.0704 25.6567 19.7218 24.9701 21.2619C24.2835 22.8019 23.3571 24.1416 22.191 25.2811C21.0229 26.4206 19.6507 27.3255 18.0743 27.9959C16.498 28.6662 14.8065 29.0009 13 29Z" fill="#D82356"/>
</svg>
