<svg width="300" height="45" viewBox="0 0 300 45" fill="none" xmlns="http://www.w3.org/2000/svg">
<rect width="300" height="45" rx="6" fill="#FEE500"/>
<path fill-rule="evenodd" clip-rule="evenodd" d="M23 14.1001C18.0292 14.1001 14 17.2131 14 21.0524C14 23.4401 15.5584 25.5451 17.9315 26.7971L16.933 30.4446C16.8448 30.7669 17.2134 31.0238 17.4965 30.837L21.8733 27.9483C22.2427 27.9839 22.6181 28.0047 23 28.0047C27.9705 28.0047 31.9999 24.8919 31.9999 21.0524C31.9999 17.2131 27.9705 14.1001 23 14.1001" fill="black"/>
<path d="M125.215 16.215C125.2 20.79 123.115 23.85 119.29 25.86L118.3 24.75C120.235 23.865 121.855 22.44 122.77 20.595L118.855 21.015L118.615 19.68L123.28 19.335C123.445 18.735 123.565 18.12 123.61 17.46H119.29V16.215H125.215ZM128.83 14.82V20.04H130.9V21.315H128.83V28.185H127.285V14.82H128.83ZM138.194 16.215C138.179 20.79 136.094 23.85 132.269 25.86L131.279 24.75C133.214 23.865 134.834 22.44 135.749 20.595L131.834 21.015L131.594 19.68L136.259 19.335C136.424 18.735 136.544 18.12 136.589 17.46H132.269V16.215H138.194ZM141.809 14.82V20.04H143.879V21.315H141.809V28.185H140.264V14.82H141.809ZM156.482 26.475H144.407V25.245H149.657V22.965C147.182 22.725 145.607 21.315 145.607 19.32C145.607 17.115 147.542 15.645 150.437 15.645C153.377 15.645 155.297 17.115 155.297 19.32C155.297 21.33 153.692 22.74 151.187 22.98V25.245H156.482V26.475ZM153.752 19.335C153.752 17.91 152.447 16.905 150.437 16.905C148.472 16.905 147.152 17.91 147.152 19.335C147.152 20.745 148.472 21.705 150.437 21.705C152.432 21.705 153.752 20.745 153.752 19.335ZM172.231 23.025H168.106V25.26H173.401V26.49H161.326V25.26H166.576V23.025H162.871V18.705H170.311V16.98H162.826V15.75H171.841V19.95H164.416V21.78H172.231V23.025ZM186.379 26.235H174.304V24.99H186.379V26.235ZM184.804 16.26C184.804 19.8 184.579 22.305 184.219 24.06L182.704 23.865C183.034 22.53 183.259 19.635 183.259 17.475H175.699V16.26H184.804ZM198.278 24.51H196.748V14.82H198.278V24.51ZM198.593 27.795H189.443V23.595H190.973V26.565H198.593V27.795ZM194.528 19.08C194.528 20.985 193.148 22.35 191.108 22.35C189.068 22.35 187.658 20.985 187.658 19.095C187.658 17.19 189.053 15.81 191.108 15.81C193.148 15.81 194.528 17.175 194.528 19.08ZM192.998 19.08C192.998 17.91 192.278 17.085 191.108 17.085C189.968 17.085 189.203 17.94 189.203 19.08C189.203 20.175 189.968 21.045 191.108 21.045C192.278 21.045 192.998 20.175 192.998 19.08Z" fill="black" fill-opacity="0.85"/>
</svg>
