<svg width="10" height="10" viewBox="0 0 10 10" fill="none" xmlns="http://www.w3.org/2000/svg">
<path id="Vector" d="M9.87759 9.334C9.91537 9.36921 9.94568 9.41167 9.96671 9.45885C9.98773 9.50603 9.99903 9.55696 9.99994 9.6086C10.0009 9.66024 9.99135 9.71154 9.97201 9.75943C9.95266 9.80732 9.92387 9.85083 9.88735 9.88735C9.85083 9.92387 9.80732 9.95266 9.75943 9.97201C9.71154 9.99135 9.66024 10.0009 9.6086 9.99994C9.55696 9.99903 9.50603 9.98773 9.45885 9.96671C9.41167 9.94568 9.36921 9.91537 9.334 9.87759L4.99041 5.53464L0.646816 9.87759C0.573906 9.94553 0.477472 9.98251 0.37783 9.98075C0.278189 9.979 0.183119 9.93863 0.112651 9.86816C0.042183 9.79769 0.00181798 9.70262 5.99217e-05 9.60298C-0.00169814 9.50334 0.035288 9.40691 0.103226 9.334L4.44618 4.99041L0.103226 0.646816C0.035288 0.573906 -0.00169814 0.477472 5.99217e-05 0.37783C0.00181798 0.278189 0.042183 0.183119 0.112651 0.112651C0.183119 0.042183 0.278189 0.00181798 0.37783 5.99217e-05C0.477472 -0.00169814 0.573906 0.035288 0.646816 0.103226L4.99041 4.44618L9.334 0.103226C9.40691 0.035288 9.50334 -0.00169814 9.60298 5.99217e-05C9.70262 0.00181798 9.79769 0.042183 9.86816 0.112651C9.93863 0.183119 9.979 0.278189 9.98075 0.37783C9.98251 0.477472 9.94553 0.573906 9.87759 0.646816L5.53464 4.99041L9.87759 9.334Z" fill="#4F4F4F"/>
</svg>
