<svg width="44" height="66" viewBox="0 0 44 66" fill="none" xmlns="http://www.w3.org/2000/svg">
<path fill-rule="evenodd" clip-rule="evenodd" d="M16.7262 0.520421C19.6844 -0.135641 22.7514 -0.171831 25.725 0.414236C28.6986 1.0003 31.5113 2.19532 33.9778 3.92055C36.4443 5.64578 38.5087 7.86206 40.0348 10.4234C41.5609 12.9846 42.5141 15.8328 42.8317 18.7802C42.8876 19.2989 42.7302 19.8181 42.3943 20.2236C42.0583 20.629 41.5713 20.8874 41.0403 20.942C40.5093 20.9966 39.9778 20.8429 39.5628 20.5147C39.1478 20.1864 38.8833 19.7106 38.8274 19.1918C38.4824 15.9893 37.2158 12.9479 35.1743 10.4198C33.1328 7.89161 30.4 5.98024 27.2924 4.90704C24.1847 3.83384 20.8295 3.64273 17.6153 4.35583C14.401 5.06894 11.4594 6.65709 9.13097 8.93632C6.80259 11.2155 5.18278 14.0926 4.45917 17.2342C3.73556 20.3758 3.93776 23.6534 5.04235 26.6874C6.14694 29.7213 8.10871 32.3875 10.7004 34.377C13.2922 36.3665 16.4078 37.598 19.6864 37.9288C19.9513 37.9529 20.2086 38.0281 20.4436 38.15C20.6785 38.2718 20.8864 38.438 21.0552 38.6388C21.224 38.8397 21.3504 39.0712 21.427 39.3201C21.5037 39.569 21.5291 39.8302 21.5018 40.0887C21.4745 40.3472 21.395 40.5979 21.2679 40.8262C21.1409 41.0545 20.9687 41.2559 20.7615 41.4189C20.5542 41.5818 20.316 41.703 20.0605 41.7754C19.8051 41.8478 19.5374 41.8701 19.2731 41.8408C14.2085 41.3317 9.4939 39.0809 5.97077 35.49C2.44763 31.8992 0.345268 27.202 0.0389228 22.237C-0.267423 17.2719 1.24219 12.362 4.2983 8.3837C7.35442 4.4054 11.7582 1.61756 16.7235 0.517799L16.7262 0.520421ZM21.4792 7.8647C22.0131 7.8647 22.525 8.07188 22.9025 8.44068C23.28 8.80947 23.4921 9.30966 23.4921 9.83121V23.5968H12.7568C12.2229 23.5968 11.711 23.3896 11.3335 23.0208C10.956 22.652 10.7439 22.1519 10.7439 21.6303C10.7439 21.1087 10.956 20.6086 11.3335 20.2398C11.711 19.871 12.2229 19.6638 12.7568 19.6638H19.4663V9.83121C19.4663 9.30966 19.6784 8.80947 20.0559 8.44068C20.4334 8.07188 20.9454 7.8647 21.4792 7.8647ZM27.4373 26.7957C27.8147 26.4274 28.3263 26.2206 28.8597 26.2206C29.3931 26.2206 29.9047 26.4274 30.2822 26.7957L34.8983 31.3055L39.5145 26.7957C39.6988 26.6025 39.921 26.4475 40.1679 26.34C40.4148 26.2325 40.6814 26.1747 40.9516 26.1701C41.2219 26.1654 41.4904 26.214 41.741 26.3129C41.9916 26.4118 42.2193 26.559 42.4104 26.7458C42.6016 26.9325 42.7523 27.1549 42.8535 27.3998C42.9547 27.6447 43.0045 27.9069 42.9997 28.171C42.9949 28.435 42.9358 28.6954 42.8258 28.9367C42.7157 29.1779 42.5571 29.395 42.3594 29.575L37.7432 34.0849L42.3594 38.5948C42.5571 38.7748 42.7157 38.9919 42.8258 39.2331C42.9358 39.4743 42.9949 39.7348 42.9997 39.9988C43.0045 40.2628 42.9547 40.5251 42.8535 40.77C42.7523 41.0149 42.6016 41.2373 42.4104 41.424C42.2193 41.6108 41.9916 41.758 41.741 41.8569C41.4904 41.9558 41.2219 42.0044 40.9516 41.9997C40.6814 41.995 40.4148 41.9372 40.1679 41.8298C39.921 41.7223 39.6988 41.5673 39.5145 41.3741L34.8983 36.8642L30.2822 41.3741C30.0979 41.5673 29.8757 41.7223 29.6287 41.8298C29.3818 41.9372 29.1153 41.995 28.845 41.9997C28.5748 42.0044 28.3063 41.9558 28.0557 41.8569C27.805 41.758 27.5773 41.6108 27.3862 41.424C27.1951 41.2373 27.0444 41.0149 26.9431 40.77C26.8419 40.5251 26.7922 40.2628 26.797 39.9988C26.8017 39.7348 26.8609 39.4743 26.9709 39.2331C27.0809 38.9919 27.2395 38.7748 27.4373 38.5948L32.0535 34.0849L27.4373 29.575C27.0604 29.2063 26.8486 28.7065 26.8486 28.1853C26.8486 27.6642 27.0604 27.1644 27.4373 26.7957Z" fill="#F8F8F8"/>
<path d="M13.2188 48.8281V50.3906H9.29688C9.53125 51.5625 11 52.75 13.8125 53.0625L13.0781 54.625C10.4141 54.3281 8.63281 53.2188 7.89062 51.75C7.14062 53.2109 5.375 54.3281 2.71875 54.625L2 53.0625C4.8125 52.75 6.26562 51.5469 6.5 50.3906H2.60938V48.8281H13.2188ZM14.4219 55.2969V56.8906H9.0625V59.3438H7.09375V56.8906H1.40625V55.2969H14.4219ZM12.9844 60.5938V62.1875H2.9375V58.0781H4.92188V60.5938H12.9844ZM26.9963 48.2188V62.4688H24.9806V48.2188H26.9963ZM17.7931 49.3438V52.8125H20.8556V49.3438H22.8244V59.1406H15.7931V49.3438H17.7931ZM17.7931 57.5312H20.8556V54.3594H17.7931V57.5312ZM41.7269 54.6719V56.2812H36.2269V57.3281C38.7034 57.5156 40.1644 58.4062 40.18 59.875C40.1644 61.5156 38.305 62.4375 35.2269 62.4375C32.1019 62.4375 30.2425 61.5156 30.2425 59.875C30.2425 58.3984 31.7191 57.5078 34.2425 57.3281V56.2812H28.7581V54.6719H41.7269ZM35.2269 58.7969C33.2581 58.8125 32.2581 59.1562 32.2738 59.875C32.2581 60.5625 33.2581 60.9375 35.2269 60.9375C37.1488 60.9375 38.1644 60.5625 38.18 59.875C38.1644 59.1562 37.1488 58.8125 35.2269 58.7969ZM40.555 48.8281V50.3906H36.6956C37.0316 51.3906 38.4769 52.3516 41.18 52.5781L40.4769 54.1406C37.7972 53.8828 35.9847 52.8672 35.2269 51.4844C34.4769 52.8672 32.6956 53.8828 29.9925 54.1406L29.3363 52.5781C31.9691 52.3516 33.4222 51.3828 33.7894 50.3906H29.9456V48.8281H40.555Z" fill="white"/>
</svg>
