<svg width="33" height="33" viewBox="0 0 33 33" fill="none" xmlns="http://www.w3.org/2000/svg">
<path fill-rule="evenodd" clip-rule="evenodd" d="M12.8364 0.408902C15.1066 -0.106575 17.4604 -0.13501 19.7424 0.325471C22.0245 0.785952 24.1831 1.7249 26.076 3.08044C27.9689 4.43597 29.5532 6.17733 30.7244 8.18978C31.8956 10.2022 32.6271 12.4401 32.8708 14.7558C32.9137 15.1634 32.793 15.5714 32.5351 15.8899C32.2773 16.2085 31.9035 16.4116 31.496 16.4544C31.0885 16.4973 30.6806 16.3765 30.3622 16.1187C30.0437 15.8608 29.8407 15.4869 29.7978 15.0793C29.533 12.5631 28.561 10.1733 26.9942 8.18695C25.4275 6.20055 23.3302 4.69876 20.9453 3.85553C18.5604 3.0123 15.9854 2.86214 13.5187 3.42244C11.052 3.98274 8.79439 5.23057 7.00749 7.02139C5.22059 8.81222 3.97748 11.0728 3.42215 13.5412C2.86682 16.0096 3.022 18.5848 3.86971 20.9686C4.71742 23.3525 6.22297 25.4473 8.21197 27.0105C10.201 28.5737 12.592 29.5413 15.1082 29.8012C15.3114 29.8201 15.5089 29.8792 15.6892 29.975C15.8695 30.0707 16.0291 30.2013 16.1586 30.3591C16.2882 30.5169 16.3852 30.6988 16.444 30.8944C16.5028 31.0899 16.5223 31.2951 16.5014 31.4983C16.4804 31.7014 16.4194 31.8983 16.3219 32.0777C16.2244 32.2571 16.0923 32.4154 15.9332 32.5434C15.7742 32.6714 15.5913 32.7666 15.3953 32.8235C15.1992 32.8804 14.9938 32.8979 14.791 32.8749C10.9042 32.4749 7.28602 30.7064 4.58222 27.885C1.87841 25.0637 0.264973 21.373 0.029871 17.4719C-0.205231 13.5708 0.953306 9.71301 3.2987 6.5872C5.64409 3.46138 9.0237 1.27094 12.8343 0.406842L12.8364 0.408902ZM16.484 6.1794C16.8937 6.1794 17.2867 6.34219 17.5764 6.63196C17.8661 6.92173 18.0288 7.31473 18.0288 7.72452V18.5404H9.7901C9.3804 18.5404 8.98748 18.3776 8.69779 18.0878C8.40809 17.798 8.24534 17.405 8.24534 16.9952C8.24534 16.5854 8.40809 16.1924 8.69779 15.9027C8.98748 15.6129 9.3804 15.4501 9.7901 15.4501H14.9393V7.72452C14.9393 7.31473 15.102 6.92173 15.3917 6.63196C15.6814 6.34219 16.0744 6.1794 16.484 6.1794ZM21.0565 21.0537C21.3462 20.7644 21.7388 20.6019 22.1482 20.6019C22.5575 20.6019 22.9501 20.7644 23.2398 21.0537L26.7824 24.5972L30.3251 21.0537C30.4665 20.9019 30.637 20.7802 30.8265 20.6957C31.016 20.6113 31.2206 20.5659 31.428 20.5622C31.6354 20.5585 31.8414 20.5967 32.0338 20.6744C32.2261 20.7521 32.4009 20.8678 32.5476 21.0145C32.6942 21.1612 32.8099 21.336 32.8876 21.5284C32.9653 21.7208 33.0034 21.9269 32.9998 22.1343C32.9961 22.3418 32.9507 22.5464 32.8663 22.7359C32.7818 22.9255 32.6601 23.0961 32.5083 23.2375L28.9657 26.781L32.5083 30.3245C32.6601 30.4659 32.7818 30.6365 32.8663 30.826C32.9507 31.0156 32.9961 31.2202 32.9998 31.4276C33.0034 31.6351 32.9653 31.8412 32.8876 32.0336C32.8099 32.226 32.6942 32.4007 32.5476 32.5474C32.4009 32.6942 32.2261 32.8098 32.0338 32.8875C31.8414 32.9653 31.6354 33.0034 31.428 32.9998C31.2206 32.9961 31.016 32.9507 30.8265 32.8662C30.637 32.7818 30.4665 32.66 30.3251 32.5082L26.7824 28.9648L23.2398 32.5082C23.0984 32.66 22.9278 32.7818 22.7383 32.8662C22.5488 32.9507 22.3443 32.9961 22.1369 32.9998C21.9295 33.0034 21.7234 32.9653 21.5311 32.8875C21.3387 32.8098 21.164 32.6942 21.0173 32.5474C20.8706 32.4007 20.755 32.226 20.6773 32.0336C20.5996 31.8412 20.5615 31.6351 20.5651 31.4276C20.5688 31.2202 20.6142 31.0156 20.6986 30.826C20.783 30.6365 20.9048 30.4659 21.0565 30.3245L24.5992 26.781L21.0565 23.2375C20.7673 22.9478 20.6048 22.5551 20.6048 22.1456C20.6048 21.7362 20.7673 21.3435 21.0565 21.0537Z" fill="#F8F8F8"/>
</svg>
