<svg width="18" height="26" viewBox="0 0 18 26" fill="none" xmlns="http://www.w3.org/2000/svg">
<path id="Vector" d="M17.9989 4.71325C17.9986 4.27003 17.8465 3.83994 17.5674 3.49292C17.2883 3.1459 16.8986 2.90236 16.4616 2.8019L15.9579 0.995282C15.866 0.703149 15.6807 0.448304 15.4299 0.268932C15.179 0.0895607 14.876 -0.00467875 14.5664 0.000334426H3.42077C3.1123 -0.00635447 2.81019 0.0874568 2.56108 0.267282C2.31197 0.447107 2.12972 0.702942 2.04247 0.995282L1.53886 2.8019C1.08593 2.91473 0.686014 3.17791 0.406131 3.54734C0.126248 3.91676 -0.0165956 4.36999 0.00153601 4.83107C0.000435805 5.24938 0.136789 5.65675 0.390108 5.99197C0.643427 6.32719 1.00003 6.57215 1.40634 6.69005L1.53886 10.3164C1.32668 10.3504 1.13138 10.4515 0.982245 10.6044C0.888577 10.702 0.815683 10.8172 0.767878 10.9431C0.720074 11.069 0.698331 11.2031 0.703936 11.3375L1.022 18.8782C1.03166 19.1099 1.12307 19.331 1.2804 19.5031C1.43773 19.6753 1.65106 19.7876 1.88344 19.8207L1.98946 22.727C2.01675 23.6069 2.39086 24.4415 3.03204 25.0529C3.67323 25.6642 4.53079 26.0041 5.42195 25.9999H12.5652C13.4585 26.0068 14.319 25.6683 14.9629 25.0567C15.6068 24.4451 15.983 23.609 16.011 22.727L16.117 19.8207C16.3468 19.7846 16.5569 19.671 16.7116 19.4992C16.8662 19.3273 16.9558 19.1079 16.9652 18.8782L17.2832 11.3375C17.2888 11.2031 17.2671 11.069 17.2193 10.9431C17.1715 10.8172 17.0986 10.702 17.0049 10.6044C16.8611 10.4516 16.67 10.3503 16.4616 10.3164L16.5941 6.69005C17.0136 6.55567 17.3775 6.29016 17.6309 5.93358C17.8843 5.57699 18.0135 5.14868 17.9989 4.71325ZM3.42077 1.30948L14.6724 1.34875L15.07 2.74953H2.95692L3.42077 1.30948ZM14.6857 22.6878C14.669 23.2297 14.4374 23.7435 14.0407 24.1182C13.644 24.4929 13.114 24.6986 12.5652 24.6908H5.42195C4.8751 24.6961 4.34797 24.4893 3.95391 24.1147C3.55985 23.7401 3.33034 23.2278 3.31474 22.6878L3.20872 19.8338H14.7917L14.6857 22.6878ZM6.21711 15.0686C6.21711 14.5248 6.38034 13.9933 6.68615 13.5412C6.99196 13.0891 7.42662 12.7367 7.93516 12.5286C8.44371 12.3206 9.0033 12.2661 9.54317 12.3722C10.083 12.4783 10.5789 12.7401 10.9682 13.1246C11.3574 13.5091 11.6224 13.9989 11.7298 14.5322C11.8372 15.0655 11.7821 15.6183 11.5715 16.1206C11.3608 16.623 11.0041 17.0523 10.5464 17.3544C10.0887 17.6565 9.55065 17.8178 9.00021 17.8178C8.26209 17.8178 7.5542 17.5281 7.03226 17.0125C6.51033 16.497 6.21711 15.7977 6.21711 15.0686ZM15.1363 10.2902H2.86415L2.73162 6.79478H15.2555L15.1363 10.2902ZM16.011 5.48564H1.98946C1.89298 5.48244 1.79824 5.45933 1.71135 5.41779C1.62445 5.37626 1.54731 5.31722 1.4849 5.24447C1.42249 5.17172 1.37618 5.08687 1.34895 4.99538C1.32173 4.90389 1.31419 4.80779 1.32682 4.71325C1.32682 4.53964 1.39663 4.37315 1.5209 4.25039C1.64517 4.12764 1.81372 4.05867 1.98946 4.05867H16.011C16.107 4.06304 16.2012 4.08693 16.2875 4.12884C16.3738 4.17076 16.4504 4.2298 16.5126 4.30228C16.5748 4.37476 16.6212 4.45912 16.6489 4.5501C16.6766 4.64109 16.685 4.73673 16.6736 4.83107C16.6736 5.00467 16.6038 5.17116 16.4795 5.29392C16.3552 5.41668 16.1867 5.48564 16.011 5.48564Z" fill="#4F4F4F"/>
</svg>
