<svg width="20" height="20" viewBox="0 0 20 20" fill="none" xmlns="http://www.w3.org/2000/svg">
<path id="Vector" d="M19 9.646V19C19 19.2652 18.8946 19.5196 18.7071 19.7071C18.5196 19.8946 18.2652 20 18 20H2C1.73479 20 1.48043 19.8946 1.2929 19.7071C1.10536 19.5196 1 19.2652 1 19V9.646C0.35432 8.91596 -0.00144327 7.97461 4.40082e-06 7V1C4.40082e-06 0.734784 0.105361 0.48043 0.292898 0.292893C0.480434 0.105357 0.734788 0 1 0H19C19.2652 0 19.5196 0.105357 19.7071 0.292893C19.8946 0.48043 20 0.734784 20 1V7C20.001 7.97452 19.6453 8.91572 19 9.646ZM17 10.874C16.2848 11.0574 15.5329 11.0398 14.8271 10.8231C14.1213 10.6064 13.4891 10.1991 13 9.646C12.625 10.0721 12.1635 10.4133 11.6461 10.6468C11.1288 10.8802 10.5676 11.0007 10 11C9.43242 11.0007 8.87122 10.8802 8.35388 10.6468C7.83655 10.4133 7.37498 10.0721 7 9.646C6.51232 10.2009 5.88013 10.6096 5.17389 10.8264C4.46764 11.0432 3.71507 11.0597 3 10.874V18H17V10.874ZM12 7C12 6.73478 12.1054 6.48043 12.2929 6.29289C12.4804 6.10536 12.7348 6 13 6C13.2652 6 13.5196 6.10536 13.7071 6.29289C13.8946 6.48043 14 6.73478 14 7C14 7.53043 14.2107 8.03914 14.5858 8.41421C14.9609 8.78929 15.4696 9 16 9C16.5304 9 17.0391 8.78929 17.4142 8.41421C17.7893 8.03914 18 7.53043 18 7V2H2V7C2 7.53043 2.21072 8.03914 2.58579 8.41421C2.96086 8.78929 3.46957 9 4 9C4.53044 9 5.03914 8.78929 5.41422 8.41421C5.78929 8.03914 6 7.53043 6 7C6 6.73478 6.10536 6.48043 6.2929 6.29289C6.48043 6.10536 6.73479 6 7 6C7.26522 6 7.51957 6.10536 7.70711 6.29289C7.89465 6.48043 8 6.73478 8 7C8 7.53043 8.21072 8.03914 8.58579 8.41421C8.96086 8.78929 9.46957 9 10 9C10.5304 9 11.0391 8.78929 11.4142 8.41421C11.7893 8.03914 12 7.53043 12 7Z" fill="#4F4F4F"/>
</svg>
